# xmcd
#
# Track frame offsets:
#	150
#	17191
#	33072
#	51711
#	66716
#	81760
#	98458
#	111876
#	127669
#	144337
#	160267
#	176189
#	190822
#	204495
#	219980
#	236037
#	252545
#	269298
#	284313
#	299091
#	314331
#
# Disc length: 4407 seconds
#
# Revision: 0
# Processed by: cddbd v1.5.2PL0 Copyright (c) Steve Scherf et al.
# Submitted via: audiograbber 1.83.01
#
DISCID=41113515
DTITLE=Sampler - Bäärenstark!!! Hits 2012  Die Zweite
DYEAR=2012
DGENRE=Deutscher Schlager
TTITLE0=Andrea Berg - Das kann kein Zufall sein    - Foxtown Mix
TTITLE1=DJ Ötzi and Bellamy Brothers - Crossfire
TTITLE2=Michael Wendler - Der Spektakuläre Hitmix
TTITLE3=Anna-Maria Zimmermann - Mit dir bieg ich den Regenbogen gerade
TTITLE4=Bernhard Brink - Kein anderes Wort für immer
TTITLE5=Hubertus von Garnier - Alles wird gut  ( I only see you )
TTITLE6=Ina Müller - Handtaschen
TTITLE7=Mary Roos - Moment
TTITLE8=Stefan Gwildis - Spiel das Lied in dir
TTITLE9=BigSoul - Viel zuviel
TTITLE10=Isabel Varell - Mit Schuld
TTITLE11=Frank Ramond - Gutes Personal
TTITLE12=Judith Hildebrandt - Küss mit mir die Sonne wach
TTITLE13=Mario and Christoph - Du hast im Schlaf seinen Namen genannt
TTITLE14=Anke Lautenbach - Tief in mir    - Remix
TTITLE15=Melanie Miric - Wie viel Fantasie hat die Nacht
TTITLE16=Claudia Calidri - Stimmen im Wind
TTITLE17=Uwe Busse - Gegen den Wind
TTITLE18=Nicole Freytag - Schmetterlinge wegen dir   - Radio Version
TTITLE19=Tom Mandl - Du bist so jung wie deine Träume   - Version 2012
TTITLE20=Lena Valaitis - Sommersonnenparadies
EXTD=CD 2 von 3CD´s
EXTT0=
EXTT1=
EXTT2=
EXTT3=
EXTT4=
EXTT5=
EXTT6=
EXTT7=
EXTT8=
EXTT9=
EXTT10=
EXTT11=
EXTT12=
EXTT13=
EXTT14=
EXTT15=
EXTT16=
EXTT17=
EXTT18=
EXTT19=
EXTT20=
PLAYORDER=
